Patient4_TMGait_0pt6_01_left_04_GRF.mot
version=1
nRows=78
nColumns=19
inDegrees=no
endheader
time	F1x	F1y	F1z	M1x	M1y	M1z	F2x	F2y	F2z	M2x	M2y	M2z	EC1x	EC1y	EC1z	EC2x	EC2y	EC2z
4.77	12.6082	-4.9059	-3.0111	0.57458	4.9784	-12.8616	-31.7	713.3402	-58.5475	283.9976	63.0852	653.55	-0.0592	0.0182	-0.0073	-0.0462	0.0165	0.9585
4.7827	8.28	-2.5983	-1.9887	0.13008	3.2729	-8.0389	-32.9095	710.9385	-57.8529	283.7134	63.1671	647.8909	-0.0592	0.0182	-0.0073	-0.0462	0.0165	0.9585
4.7954	4.6596	-0.60698	-1.1215	-0.25777	1.8294	-3.9424	-33.3378	710.2956	-56.901	284.1786	62.6515	642.9105	-0.0592	0.0182	-0.0073	-0.0462	0.0165	0.9585
4.8081	1.9175	0.96734	-0.46222	-0.56663	0.72921	-0.7738	-32.8412	712.0861	-55.6754	285.6578	61.4478	639.2632	-0.0592	0.0182	-0.0073	-0.0462	0.0165	0.9585
4.8209	0.042367	2.1191	-0.018183	-0.79368	-0.023577	1.4674	-31.3571	716.6022	-54.2254	288.2785	59.5697	637.2593	-0.0592	0.0182	-0.0073	-0.0462	0.0165	0.9585
4.8336	-1.1216	2.8905	0.25155	-0.94532	-0.49229	2.9065	-28.8509	723.7394	-52.632	292.0069	57.0721	636.8552	-0.0592	0.0182	-0.0073	-0.0462	0.0165	0.9585
4.8463	-1.7581	3.3401	0.38366	-1.0327	-0.74321	3.7086	-25.3401	733.0113	-51.0151	296.6432	54.0698	637.6993	-0.0592	0.0182	-0.0073	-0.0462	0.0165	0.9585
4.859	-2.0424	3.5036	0.43414	-1.0611	-0.85808	4.0175	-20.9397	743.614	-49.4782	301.8454	50.7026	639.2184	-0.0592	0.0182	-0.0073	-0.0462	0.0165	0.9585
4.8717	-2.1341	3.3981	0.4323	-1.0255	-0.89927	3.9545	-15.8699	754.5204	-48.1285	307.1661	47.1565	640.7241	-0.0592	0.0182	-0.0073	-0.0462	0.0165	0.9585
4.8844	-2.1324	3.0062	0.41626	-0.90814	-0.92095	3.5417	-10.4314	764.5745	-47.0294	312.0934	43.6114	641.4705	-0.0592	0.0182	-0.0073	-0.0462	0.0165	0.9585
4.8971	-2.1206	2.3132	0.40204	-0.68964	-0.95301	2.8058	-4.98	772.6212	-46.209	316.1093	40.2322	640.7476	-0.0592	0.0182	-0.0073	-0.0462	0.0165	0.9585
4.9099	-2.1157	1.2616	0.40607	-0.34302	-1.0059	1.6994	0.14872	777.6315	-45.6461	318.7534	37.1437	637.9457	-0.0592	0.0182	-0.0073	-0.0462	0.0165	0.9585
4.9226	-2.1243	-0.17541	0.43001	0.14898	-1.0753	0.22466	4.691	778.8464	-45.2929	319.688	34.4284	632.6395	-0.0592	0.0182	-0.0073	-0.0462	0.0165	0.9585
4.9353	-2.0715	-1.9921	0.45853	0.78536	-1.1182	-1.618	8.5376	775.8626	-45.0741	318.7419	32.0847	624.5963	-0.0592	0.0182	-0.0073	-0.0462	0.0165	0.9585
4.948	-1.8508	-4.0755	0.47549	1.526	-1.0803	-3.7141	11.7316	768.7426	-44.9354	315.9491	30.0697	613.8784	-0.0592	0.0182	-0.0073	-0.0462	0.0165	0.9585
4.9607	-1.3085	-6.1485	0.44356	2.2682	-0.86866	-5.8055	14.4395	758.0497	-44.83	311.5659	28.2937	600.8677	-0.0592	0.0182	-0.0073	-0.0462	0.0165	0.9585
4.9734	-0.26386	-7.6957	0.33124	2.8224	-0.38718	-7.3982	16.8466	744.8123	-44.7521	306.0456	26.6832	586.2784	-0.0592	0.0182	-0.0073	-0.0462	0.0165	0.9585
4.9861	1.468	-7.8829	0.080616	2.8823	0.48684	-7.6844	19.1516	730.3763	-44.7354	299.9698	25.1909	571.0469	-0.0592	0.0182	-0.0073	-0.0462	0.0165	0.9585
4.9989	4.0536	-5.5252	-0.35585	2.013	1.859	-5.5198	21.5127	716.1859	-44.8471	293.9548	23.8067	556.1919	-0.0592	0.0182	-0.0073	-0.0462	0.0165	0.9585
5.0116	7.5545	0.9454	-1.041	-0.356	3.8108	0.63089	24.0503	703.5422	-45.1387	288.55	22.5225	542.6411	-0.0592	0.0182	-0.0073	-0.0462	0.0165	0.9585
5.0243	11.8619	13.3439	-1.9962	-4.8879	6.317	12.5304	26.8257	693.3563	-45.6166	284.1348	21.3185	531.0572	-0.0592	0.0182	-0.0073	-0.0462	0.0165	0.9585
5.037	16.5285	33.5134	-3.2132	-12.2542	9.1954	31.9926	29.8013	685.908	-46.2238	280.8188	20.1633	521.6733	-0.0592	0.0182	-0.0073	-0.0462	0.0165	0.9585
5.0497	20.642	62.8331	-4.5783	-22.9549	11.9967	60.382	32.8661	680.6638	-46.8335	278.374	19.0058	514.1383	-0.0592	0.0182	-0.0073	-0.0462	0.0165	0.9585
5.0624	22.6627	101.5305	-5.8606	-37.0649	13.9364	97.969	35.8291	676.3209	-47.2465	276.2545	17.7785	507.5526	-0.0592	0.0182	-0.0073	-0.0462	0.0165	0.9585
5.0751	20.8484	148.2109	-6.6549	-54.0668	14.0064	143.475	38.4913	670.9847	-47.248	273.6805	16.4195	500.5665	-0.0592	0.0182	-0.0073	-0.0462	0.0165	0.9585
5.0879	14.865	200.377	-6.5219	-73.0214	11.6601	194.5259	40.6558	662.5701	-46.6356	269.8056	14.8783	491.6955	-0.0592	0.0182	-0.0073	-0.0462	0.0165	0.9585
5.1006	6.1166	254.1746	-4.8786	-92.4687	6.8286	247.289	42.2014	649.0862	-45.2748	263.8404	13.1256	479.4961	-0.0592	0.0182	-0.0073	-0.0462	0.0165	0.9585
5.1133	-3.6069	303.9708	-1.0857	-110.3404	-0.44361	295.9983	43.0642	628.8135	-43.1305	255.1228	11.179	462.7073	-0.0592	0.0182	-0.0073	-0.0462	0.0165	0.9585
5.126	-12.7212	345.8898	4.461	-125.2555	-9.149	336.5738	43.2381	600.5928	-40.2517	243.2244	9.0861	440.4492	-0.0592	0.0182	-0.0073	-0.0462	0.0165	0.9585
5.1387	-20.4831	379.9973	10.8106	-137.2825	-18.0419	368.9134	42.7286	564.0561	-36.8038	228.026	6.9557	412.4268	-0.0592	0.0182	-0.0073	-0.0462	0.0165	0.9585
5.1514	-26.7618	409.2897	17.1028	-147.5407	-26.2183	395.883	41.5715	519.6049	-33.0128	209.7054	4.9158	378.9123	-0.0592	0.0182	-0.0073	-0.0462	0.0165	0.9585
5.1641	-31.666	437.4991	22.8275	-157.3874	-33.2213	421.0966	39.7808	468.2233	-29.038	188.6735	3.0513	340.6035	-0.0592	0.0182	-0.0073	-0.0462	0.0165	0.9585
5.1769	-35.254	467.5723	27.7346	-167.8645	-38.8471	447.3966	37.2892	411.394	-24.9407	165.5339	1.41	298.592	-0.0592	0.0182	-0.0073	-0.0462	0.0165	0.9585
5.1896	-37.5519	501.0595	32.0021	-179.4685	-43.3019	476.3111	34.0112	351.0098	-20.7681	141.0513	0.042521	254.2526	-0.0592	0.0182	-0.0073	-0.0462	0.0165	0.9585
5.2023	-38.643	538.2223	35.956	-192.2133	-46.9571	508.1609	29.8838	289.4026	-16.6249	116.1564	-0.97092	209.2902	-0.0592	0.0182	-0.0073	-0.0462	0.0165	0.9585
5.215	-38.7512	578.2846	40.1149	-205.7324	-50.4071	542.3409	25.0441	229.2471	-12.6859	91.9116	-1.5743	165.6116	-0.0592	0.0182	-0.0073	-0.0462	0.0165	0.9585
5.2277	-38.1877	619.7653	44.8482	-219.4324	-54.123	577.5605	19.8419	173.3321	-9.1521	69.4163	-1.7802	125.1852	-0.0592	0.0182	-0.0073	-0.0462	0.0165	0.9585
5.2404	-37.3017	660.8893	50.315	-232.6594	-58.3781	612.2434	14.8062	124.0594	-6.1695	49.6197	-1.7051	89.6517	-0.0592	0.0182	-0.0073	-0.0462	0.0165	0.9585
5.2531	-36.3265	699.8845	56.3281	-244.8255	-63.0808	644.7789	10.3882	83.0136	-3.8139	33.1475	-1.48	60.0849	-0.0592	0.0182	-0.0073	-0.0462	0.0165	0.9585
5.2659	-35.341	735.1857	62.4298	-255.4677	-67.84	673.7432	6.7878	50.8007	-2.0578	20.237	-1.2079	36.8906	-0.0592	0.0182	-0.0073	-0.0462	0.0165	0.9585
5.2786	-34.2703	765.5073	67.9648	-264.2618	-72.034	697.946	3.9926	27.1648	-0.84306	10.7796	-0.91434	19.8842	-0.0592	0.0182	-0.0073	-0.0462	0.0165	0.9585
5.2913	-32.9925	789.8116	72.399	-270.9742	-75.1363	716.4343	1.9158	11.2112	-0.08561	4.4072	-0.61595	8.4371	-0.0592	0.0182	-0.0073	-0.0462	0.0165	0.9585
5.304	-31.3648	807.236	75.4748	-275.4117	-76.8672	728.4392	0.49899	1.5897	0.31387	0.57191	-0.34542	1.5645	-0.0592	0.0182	-0.0073	-0.0462	0.0165	0.9585
5.3167	-29.2857	817.1917	77.2288	-277.4402	-77.232	733.4847	-0.37451	-3.2655	0.46752	-1.3589	-0.12829	-1.8659	-0.0592	0.0182	-0.0073	-0.0462	0.0165	0.9585
5.3294	-26.7088	819.5827	77.8202	-277.0683	-76.3692	731.5523	-0.82211	-4.8844	0.46369	-1.9965	0.030241	-2.9753	-0.0592	0.0182	-0.0073	-0.0462	0.0165	0.9585
5.3421	-23.6378	815.0324	77.4154	-274.5309	-74.4437	723.2717	-0.98423	-4.5333	0.37461	-1.8482	0.13749	-2.6641	-0.0592	0.0182	-0.0073	-0.0462	0.0165	0.9585
5.3549	-20.1162	804.8341	76.1677	-270.2788	-71.6202	709.8675	-0.96007	-3.1843	0.25233	-1.3002	0.20025	-1.6454	-0.0592	0.0182	-0.0073	-0.0462	0.0165	0.9585
5.3676	-16.2339	790.7292	74.2402	-264.9008	-68.0806	692.9458	-0.84496	-1.4846	0.12911	-0.61162	0.23056	-0.38194	-0.0592	0.0182	-0.0073	-0.0462	0.0165	0.9585
5.3803	-12.1096	774.5976	71.835	-259.0202	-64.0461	674.2099	-0.69375	0.1609	0.020386	0.05698	0.23664	0.8293	-0.0592	0.0182	-0.0073	-0.0462	0.0165	0.9585
5.393	-7.8835	758.2331	69.1683	-253.2181	-59.7475	655.2647	-0.54816	1.5388	-0.067104	0.62159	0.22491	1.8333	-0.0592	0.0182	-0.0073	-0.0462	0.0165	0.9585
5.4057	-3.6758	743.1487	66.4639	-247.9769	-55.416	637.4402	-0.43131	2.5751	-0.12914	1.0536	0.20196	2.5813	-0.0592	0.0182	-0.0073	-0.0462	0.0165	0.9585
5.4184	0.41056	730.4321	63.9015	-243.6367	-51.2391	621.6747	-0.34476	3.2826	-0.17471	1.3578	0.18506	3.0804	-0.0592	0.0182	-0.0073	-0.0462	0.0165	0.9585
5.4311	4.3373	720.6754	61.6421	-240.3761	-47.3699	608.457	-0.29541	3.7269	-0.20636	1.5578	0.18516	3.3901	-0.0592	0.0182	-0.0073	-0.0462	0.0165	0.9585
5.4439	8.1118	714.0187	59.7902	-238.2294	-43.899	597.8802	-0.26089	3.9777	-0.23402	1.6812	0.2057	3.558	-0.0592	0.0182	-0.0073	-0.0462	0.0165	0.9585
5.4566	11.762	710.2652	58.4007	-237.1241	-40.8722	589.7335	-0.24708	4.1065	-0.25831	1.7533	0.24282	3.6471	-0.0592	0.0182	-0.0073	-0.0462	0.0165	0.9585
5.4693	15.308	709.0136	57.4455	-236.9285	-38.2661	583.6333	-0.24194	4.1465	-0.28583	1.7866	0.29548	3.6703	-0.0592	0.0182	-0.0073	-0.0462	0.0165	0.9585
5.482	18.7589	709.7635	56.87	-237.4839	-36.0396	579.132	-0.2579	4.1118	-0.31496	1.7839	0.3622	3.6417	-0.0592	0.0182	-0.0073	-0.0462	0.0165	0.9585
5.4947	22.1294	712.0069	56.5789	-238.633	-34.1161	575.7834	-0.28727	3.979	-0.34471	1.7343	0.43656	3.535	-0.0592	0.0182	-0.0073	-0.0462	0.0165	0.9585
5.5074	25.4212	715.3279	56.4908	-240.2438	-32.4342	573.2383	-0.3239	3.6995	-0.37351	1.6161	0.51174	3.299	-0.0592	0.0182	-0.0073	-0.0462	0.0165	0.9585
5.5201	28.6607	719.4318	56.5186	-242.2155	-30.9142	571.2411	-0.368	3.1924	-0.4009	1.3946	0.58348	2.847	-0.0592	0.0182	-0.0073	-0.0462	0.0165	0.9585
5.5329	31.8574	724.1331	56.6221	-244.467	-29.5158	569.6578	-0.40915	2.3508	-0.42416	1.0257	0.64156	2.0569	-0.0592	0.0182	-0.0073	-0.0462	0.0165	0.9585
5.5456	35.0462	729.277	56.7742	-246.9149	-28.1974	568.3809	-0.44467	1.0719	-0.43869	0.46731	0.67657	0.81869	-0.0592	0.0182	-0.0073	-0.0462	0.0165	0.9585
5.5583	38.2344	734.6825	57.0035	-249.4539	-26.9677	567.3185	-0.452	-0.72222	-0.43431	-0.30868	0.6693	-0.95019	-0.0592	0.0182	-0.0073	-0.0462	0.0165	0.9585
5.571	41.4301	740.0905	57.3472	-251.9475	-25.8369	566.3279	-0.40871	-3.0063	-0.39984	-1.2902	0.59981	-3.2177	-0.0592	0.0182	-0.0073	-0.0462	0.0165	0.9585
5.5837	44.6185	745.161	57.8574	-254.2286	-24.8379	565.213	-0.2643	-5.6113	-0.3171	-2.4016	0.43526	-5.8171	-0.0592	0.0182	-0.0073	-0.0462	0.0165	0.9585
5.5964	47.7831	749.5142	58.542	-256.1207	-23.9759	563.7639	0.03265	-8.1162	-0.16861	-3.4616	0.14273	-8.3249	-0.0592	0.0182	-0.0073	-0.0462	0.0165	0.9585
5.6091	50.8827	752.7439	59.395	-257.4506	-23.2641	561.771	0.53785	-9.768	0.071762	-4.1487	-0.32298	-9.9884	-0.0592	0.0182	-0.0073	-0.0462	0.0165	0.9585
5.6219	53.7976	754.4067	60.3765	-258.0451	-22.7157	559.0141	1.2979	-9.3873	0.43586	-3.9631	-1.0089	-9.6291	-0.0592	0.0182	-0.0073	-0.0462	0.0165	0.9585
5.6346	56.3548	754.0286	61.4603	-257.7329	-22.3769	555.2391	2.3421	-5.3163	0.94129	-2.2036	-1.9359	-5.5864	-0.0592	0.0182	-0.0073	-0.0462	0.0165	0.9585
5.6473	58.3571	751.1644	62.5804	-256.3706	-22.2729	550.2034	3.6398	4.5586	1.5874	2.023	-3.0781	4.2572	-0.0592	0.0182	-0.0073	-0.0462	0.0165	0.9585
5.66	59.6843	745.4196	63.6377	-253.8557	-22.3851	543.6482	5.06	22.6455	2.3238	9.7325	-4.318	22.3242	-0.0592	0.0182	-0.0073	-0.0462	0.0165	0.9585
5.6727	60.3022	736.3929	64.4349	-250.1056	-22.5909	535.2611	6.2852	51.311	3.0394	21.9186	-5.3995	50.9977	-0.0592	0.0182	-0.0073	-0.0462	0.0165	0.9585
5.6854	60.2844	723.4676	64.7141	-244.9831	-22.6938	524.517	6.6069	92.3118	3.5609	39.3097	-5.8468	92.0538	-0.0592	0.0182	-0.0073	-0.0462	0.0165	0.9585
5.6981	59.7467	705.637	64.1639	-238.2306	-22.4397	510.5847	4.7819	145.8752	3.6231	61.9809	-4.873	145.7113	-0.0592	0.0182	-0.0073	-0.0462	0.0165	0.9585
5.7109	58.7653	681.4592	62.5089	-229.4421	-21.6151	492.3134	-0.79183	209.7568	2.8449	88.9504	-1.456	209.727	-0.0592	0.0182	-0.0073	-0.0462	0.0165	0.9585
5.7236	57.295	649.2674	59.5448	-218.1224	-20.0972	468.4149	-10.466	279.0102	0.62225	118.0758	5.1085	279.1072	-0.0592	0.0182	-0.0073	-0.0462	0.0165	0.9585
5.7363	55.0889	607.6272	55.2365	-203.8239	-17.9559	437.8343	-22.7626	347.7269	-3.5783	146.8186	14.6713	347.7253	-0.0592	0.0182	-0.0073	-0.0462	0.0165	0.9585
5.749	51.8056	555.9489	49.7293	-186.3417	-15.4114	400.1654	-35.8492	412.2993	-9.4455	173.6221	26.0924	411.6602	-0.0592	0.0182	-0.0073	-0.0462	0.0165	0.9585
